<svg width="80" height="80" viewBox="0 0 80 80" fill="none" xmlns="http://www.w3.org/2000/svg">
<path fill-rule="evenodd" clip-rule="evenodd" d="M40 6.66678C58.41 6.66678 73.3333 21.5901 73.3333 40.0001C73.3333 58.4101 58.41 73.3335 40 73.3335C21.59 73.3335 6.66663 58.4101 6.66663 40.0001C6.66663 21.5901 21.59 6.66678 40 6.66678ZM40 13.3334C25.2733 13.3334 13.3333 25.2734 13.3333 40.0001C13.3333 54.7268 25.2733 66.6668 40 66.6668C54.7266 66.6668 66.6666 54.7268 66.6666 40.0001C66.6666 25.2734 54.7266 13.3334 40 13.3334ZM55.32 24.6801C56 25.3601 56.0866 26.4334 55.53 27.2134C48.2633 37.3668 44.2633 42.8068 43.5366 43.5368C41.5833 45.4868 38.4166 45.4868 36.4633 43.5368C34.5133 41.5834 34.5133 38.4168 36.4633 36.4634C37.71 35.2201 43.1466 31.2168 52.7766 24.4568C53.5666 23.9034 54.64 23.9968 55.32 24.6801ZM58.3333 36.6668C60.1733 36.6668 61.6666 38.1601 61.6666 40.0001C61.6666 41.8401 60.1733 43.3334 58.3333 43.3334C56.4933 43.3334 55 41.8401 55 40.0001C55 38.1601 56.4933 36.6668 58.3333 36.6668ZM21.6666 36.6668C23.5066 36.6668 25 38.1601 25 40.0001C25 41.8401 23.5066 43.3334 21.6666 43.3334C19.8266 43.3334 18.3333 41.8401 18.3333 40.0001C18.3333 38.1601 19.8266 36.6668 21.6666 36.6668ZM29.3933 24.6801C30.6933 25.9801 30.6933 28.0901 29.3933 29.3934C28.0933 30.6934 25.98 30.6934 24.68 29.3934C23.38 28.0934 23.38 25.9801 24.68 24.6801C25.98 23.3801 28.09 23.3801 29.3933 24.6801ZM40 18.3334C41.84 18.3334 43.3333 19.8268 43.3333 21.6668C43.3333 23.5068 41.84 25.0001 40 25.0001C38.16 25.0001 36.6666 23.5068 36.6666 21.6668C36.6666 19.8268 38.16 18.3334 40 18.3334Z" fill="#6C6CF4"/>
</svg>
