<svg width="80" height="80" viewBox="0 0 80 80" fill="none" xmlns="http://www.w3.org/2000/svg">
<path fill-rule="evenodd" clip-rule="evenodd" d="M20.7833 21.5101C12.0236 30.6019 10.84 44.5905 17.9475 55.0249C25.055 65.4592 38.5056 69.4794 50.1733 64.6568C50.5566 62.1568 49.7166 59.7568 49.3733 58.9168C48.6066 57.0501 46.08 53.8601 41.8633 49.4368C40.7366 48.2535 40.81 47.3435 41.2133 44.6468L41.2566 44.3435C41.53 42.4968 41.99 41.4035 48.2066 40.4168C51.3666 39.9168 52.1966 41.1768 53.3466 42.9268L53.7333 43.5001C54.8266 45.1001 55.6366 45.4668 56.86 46.0201C57.41 46.2701 58.0933 46.5868 59.01 47.1035C61.1833 48.3468 61.1833 49.7501 61.1833 52.8235V53.1735C61.1833 54.4768 61.0566 55.6235 60.8566 56.6201C66.0414 50.1129 67.8928 41.559 65.8627 33.4903C63.8326 25.4215 58.1536 18.7622 50.5066 15.4835C48.6633 16.7268 46.1333 18.4901 45.25 19.7001C44.8 20.3168 44.16 23.4735 42.0833 23.7335C41.5433 23.8001 40.8133 23.7535 40.04 23.7035C37.9666 23.5701 35.1333 23.3868 34.2266 25.8501C33.65 27.4101 33.55 31.6501 35.4133 33.8501C35.7133 34.2001 35.77 34.8501 35.5666 35.5801C35.3 36.5368 34.7633 37.1201 34.5933 37.2401C34.2733 37.0535 33.6333 36.3101 33.1966 35.8068C32.1533 34.5901 30.8466 33.0735 29.16 32.6068C28.5466 32.4368 27.8733 32.2968 27.2166 32.1568C25.3866 31.7735 23.3166 31.3368 22.8333 30.3101C22.48 29.5568 22.4833 28.5201 22.4833 27.4268C22.4833 26.0368 22.4833 24.4668 21.8033 22.9435C21.5669 22.3998 21.2195 21.9116 20.7833 21.5101ZM40 73.3335C21.59 73.3335 6.66663 58.4101 6.66663 40.0001C6.66663 21.5901 21.59 6.66681 40 6.66681C58.41 6.66681 73.3333 21.5901 73.3333 40.0001C73.3333 58.4101 58.41 73.3335 40 73.3335Z" fill="#6C6CF4"/>
</svg>
