<svg width="80" height="80" viewBox="0 0 80 80" fill="none" xmlns="http://www.w3.org/2000/svg">
<path d="M13.3334 20.4768V63.2234L30.2167 55.9901L50.2167 65.9901L66.6667 58.9335V16.1901L71.01 14.3301C71.2636 14.2214 71.5403 14.1773 71.8151 14.2019C72.09 14.2265 72.3544 14.3189 72.5847 14.4709C72.815 14.6229 73.004 14.8297 73.1347 15.0728C73.2653 15.3158 73.3336 15.5875 73.3334 15.8635V63.3335L50 73.3335L30 63.3335L8.99002 72.3368C8.7364 72.4455 8.45975 72.4896 8.18491 72.465C7.91006 72.4404 7.64562 72.348 7.41531 72.196C7.185 72.044 6.99604 71.8372 6.86538 71.5941C6.73471 71.3511 6.66644 71.0794 6.66669 70.8035V23.3335L13.3334 20.4768ZM54.1434 37.4768L40 51.6168L25.8567 37.4768C23.06 34.6796 21.1555 31.1159 20.3841 27.2364C19.6126 23.3569 20.0089 19.3357 21.5228 15.6814C23.0366 12.0271 25.6001 8.9037 28.889 6.70622C32.1779 4.50874 36.0445 3.33585 40 3.33585C43.9555 3.33585 47.8222 4.50874 51.1111 6.70622C54.4 8.9037 56.9634 12.0271 58.4773 15.6814C59.9911 19.3357 60.3874 23.3569 59.616 27.2364C58.8445 31.1159 56.9401 34.6796 54.1434 37.4768ZM40 42.1901L49.4267 32.7601C51.2918 30.8956 52.5621 28.5198 53.0769 25.9333C53.5917 23.3468 53.3279 20.6657 52.3188 18.2291C51.3098 15.7925 49.6008 13.7099 47.408 12.2446C45.2153 10.7794 42.6373 9.99727 40 9.99727C37.3628 9.99727 34.7847 10.7794 32.592 12.2446C30.3993 13.7099 28.6903 15.7925 27.6812 18.2291C26.6722 20.6657 26.4084 23.3468 26.9232 25.9333C27.438 28.5198 28.7083 30.8956 30.5734 32.7601L40 42.1901Z" fill="#6C6CF4"/>
</svg>
