<svg width="80" height="80" viewBox="0 0 80 80" fill="none" xmlns="http://www.w3.org/2000/svg">
<path fill-rule="evenodd" clip-rule="evenodd" d="M40 36.6668C49.2047 36.6668 56.6666 44.1287 56.6666 53.3335V73.3335H50V53.3335C50.0003 48.0383 45.8727 43.6608 40.5866 43.3501L40 43.3335C34.7048 43.3332 30.3273 47.4607 30.0166 52.7468L30 53.3335V73.3335H23.3333V53.3335C23.3333 44.1287 30.7952 36.6668 40 36.6668ZM18.3333 46.6668C19.2633 46.6668 20.1666 46.7768 21.0333 46.9801C20.4634 48.6768 20.1259 50.4429 20.03 52.2301L20 53.3335V53.6201C19.6168 53.483 19.2183 53.3935 18.8133 53.3535L18.3333 53.3335C15.7579 53.3336 13.6039 55.29 13.3566 57.8535L13.3333 58.3335V73.3335H6.66663V58.3335C6.66663 51.8902 11.89 46.6668 18.3333 46.6668ZM61.6666 46.6668C68.11 46.6668 73.3333 51.8902 73.3333 58.3335V73.3335H66.6666V58.3335C66.6665 55.7581 64.7101 53.604 62.1466 53.3568L61.6666 53.3335C61.0833 53.3335 60.5233 53.4335 60 53.6168V53.3335C60 51.1135 59.64 48.9801 58.97 46.9868C59.8333 46.7768 60.7366 46.6668 61.6666 46.6668ZM18.3333 26.6668C22.9357 26.6668 26.6666 30.3978 26.6666 35.0001C26.6666 39.6025 22.9357 43.3335 18.3333 43.3335C13.7309 43.3335 9.99996 39.6025 9.99996 35.0001C9.99996 30.3978 13.7309 26.6668 18.3333 26.6668ZM61.6666 26.6668C66.269 26.6668 70 30.3978 70 35.0001C70 39.6025 66.269 43.3335 61.6666 43.3335C57.0643 43.3335 53.3333 39.6025 53.3333 35.0001C53.3333 30.3978 57.0643 26.6668 61.6666 26.6668ZM18.3333 33.3335C17.4128 33.3335 16.6666 34.0797 16.6666 35.0001C16.6666 35.9206 17.4128 36.6668 18.3333 36.6668C19.2538 36.6668 20 35.9206 20 35.0001C20 34.0797 19.2538 33.3335 18.3333 33.3335ZM61.6666 33.3335C60.7462 33.3335 60 34.0797 60 35.0001C60 35.9206 60.7462 36.6668 61.6666 36.6668C62.5871 36.6668 63.3333 35.9206 63.3333 35.0001C63.3333 34.0797 62.5871 33.3335 61.6666 33.3335ZM40 6.66681C47.3638 6.66681 53.3333 12.6363 53.3333 20.0001C53.3333 27.3639 47.3638 33.3335 40 33.3335C32.6362 33.3335 26.6666 27.3639 26.6666 20.0001C26.6666 12.6363 32.6362 6.66681 40 6.66681ZM40 13.3335C36.3181 13.3335 33.3333 16.3182 33.3333 20.0001C33.3333 23.682 36.3181 26.6668 40 26.6668C43.6819 26.6668 46.6666 23.682 46.6666 20.0001C46.6666 16.3182 43.6819 13.3335 40 13.3335Z" fill="#6C6CF4"/>
</svg>
